<svg xmlns="http://www.w3.org/2000/svg" version="1.1" xmlns:xlink="http://www.w3.org/1999/xlink" xmlns:svgjs="http://svgjs.dev/svgjs" width="1000" height="623" viewBox="0 0 1000 623"><g transform="matrix(1,0,0,1,-0.6060606060606233,0.2522267206477409)"><svg viewBox="0 0 396 247" data-background-color="#ffffff" preserveAspectRatio="xMidYMid meet" height="623" width="1000" xmlns="http://www.w3.org/2000/svg" xmlns:xlink="http://www.w3.org/1999/xlink"><g id="tight-bounds" transform="matrix(1,0,0,1,0.2400000000000091,-0.09999999999999432)"><svg viewBox="0 0 395.52 247.2" height="247.2" width="395.52"><g><svg></svg></g><g><svg viewBox="0 0 395.52 247.2" height="247.2" width="395.52"><g transform="matrix(1,0,0,1,75.54432,106.28523081905576)"><svg viewBox="0 0 244.43135999999998 34.629538361888486" height="34.629538361888486" width="244.43135999999998"><g><svg viewBox="0 0 289.0145138062908 40.9458065978011" height="34.629538361888486" width="244.43135999999998"><g transform="matrix(1,0,0,1,0,5.658935644124467)"><svg viewBox="0 0 244.43135999999998 29.627935309552168" height="29.627935309552168" width="244.43135999999998"><g id="textblocktransform"><svg viewBox="0 0 244.43135999999998 29.627935309552168" height="29.627935309552168" width="244.43135999999998" id="textblock"><g><svg viewBox="0 0 244.43135999999998 15.979892576977518" height="15.979892576977518" width="244.43135999999998"><g transform="matrix(1,0,0,1,0,0)"><svg width="244.43135999999998" viewBox="1.7999999523162842 -35 551.9537353515625 35.70000076293945" height="15.979892576977518" data-palette-color="#02152a"><g transform="matrix(1,0,0,1,0,0)"><g><svg width="15.7158203125" viewBox="1.7799999713897705 -36.36000061035156 74.20999908447266 36.36000061035156" height="7.7" data-palette-color="#02152a" id="scriptelement" x="538.0379218145099" y="-35"><path d="M12.91-30.02L1.78-30.02 1.78-36.36 31.64-36.36 31.64-30.02 20.51-30.02 20.51 0 12.91 0 12.91-30.02ZM36.57 0L36.57-36.36 46.06-36.36 56.07-11.93 56.5-11.93 66.51-36.36 75.99-36.36 75.99 0 68.53 0 68.53-23.67 68.23-23.67 58.82-0.18 53.74-0.18 44.33-23.76 44.03-23.76 44.03 0 36.57 0Z" opacity="1" transform="matrix(1,0,0,1,0,0)" fill="#02152a" class="undefined-123" id="p-123"></path></svg></g></g><g class="undefined-text-0" data-fill-palette-color="primary" id="text-0"><path d="M38.1-4.15L42.45-4.15 42.45 0 26.35 0 26.35-4.15 31.6-4.15 21.05-16.35 13.4-9.85 13.4-4.15 19.6-4.15 19.6 0 1.8 0 1.8-4.15 8.25-4.15 8.25-30.15 1.8-30.15 1.8-34.3 19.6-34.3 19.6-30.15 13.4-30.15 13.4-14.65 31.6-30.15 25.65-30.15 25.65-34.3 41.7-34.3 41.7-30.15 37.45-30.15 24.65-19.35 38.1-4.15ZM78.65-23.3L74.05-23.3 74.05-30.15 56.25-30.15 56.25-19.2 64.15-19.2 64.15-23.85 68.15-23.85 68.15-10.75 64.15-10.75 64.15-15.4 56.25-15.4 56.25-4.15 74.05-4.15 74.05-11 78.65-11 78.65 0 44.75 0 44.75-4.15 51.15-4.15 51.15-30.15 44.75-30.15 44.75-34.3 78.65-34.3 78.65-23.3ZM111.5-11.9L116.35-11.9 116.35 0 84.2 0 84.2-4.15 90.65-4.15 90.65-30.15 84.2-30.15 84.2-34.3 102.2-34.3 102.2-30.15 95.8-30.15 95.8-4.15 111.5-4.15 111.5-11.9ZM162.64-34.3L162.64-30.15 156.19-30.15 156.19-13.25Q156.19-9.3 154.24-6.13 152.29-2.95 148.79-1.15 145.29 0.65 140.79 0.65L140.79 0.65Q136.19 0.65 132.69-1.15 129.19-2.95 127.29-6.1 125.39-9.25 125.39-13.25L125.39-13.25 125.39-30.15 118.94-30.15 118.94-34.3 136.64-34.3 136.64-30.15 130.59-30.15 130.54-13.4Q130.54-10.6 131.84-8.38 133.14-6.15 135.47-4.9 137.79-3.65 140.79-3.65L140.79-3.65Q143.74-3.65 146.09-4.9 148.44-6.15 149.74-8.4 151.04-10.65 151.04-13.45L151.04-13.45 150.99-30.15 144.89-30.15 144.89-34.3 162.64-34.3ZM190.54-17.75Q198.19-15.95 198.19-9.35L198.19-9.35Q198.19-4.85 194.79-2.43 191.39 0 185.09 0L185.09 0 164.74 0 164.74-4.15 171.19-4.15 171.19-30.15 164.74-30.15 164.74-34.3 184.29-34.3Q189.74-34.3 192.72-31.85 195.69-29.4 195.69-25.4L195.69-25.4Q195.69-22.7 194.32-20.78 192.94-18.85 190.54-17.75L190.54-17.75ZM183.94-30.15L176.29-30.15 176.29-19.2 183.04-19.2Q186.54-19.2 188.52-20.58 190.49-21.95 190.49-24.8L190.49-24.8Q190.49-27.55 188.64-28.85 186.79-30.15 183.94-30.15L183.94-30.15ZM184.59-4.15Q192.99-4.15 192.99-9.75L192.99-9.75Q192.99-12.65 190.77-14 188.54-15.35 184.54-15.4L184.54-15.4 176.29-15.4 176.29-4.15 184.59-4.15ZM220.64-30.15L214.14-30.15 214.14-4.15 220.64-4.15 220.64 0 202.54 0 202.54-4.15 208.99-4.15 208.99-30.15 202.54-30.15 202.54-34.3 220.64-34.3 220.64-30.15ZM259.39-4.15L264.74-4.15 264.74 0 248.39 0 248.39-4.15 253.99-4.15 250.79-12.15 235.99-12.15 232.84-4.15 238.84-4.15 238.84 0 222.59 0 222.59-4.15 227.94-4.15 239.09-30.2 233.94-30.2 233.94-34.3 253.24-34.3 253.24-30.2 248.14-30.2 259.39-4.15ZM237.49-15.9L249.29-15.9 243.59-30.2 243.19-30.2 237.49-15.9Z" fill="#02152a" data-fill-palette-color="primary"></path><path d="M308.79-34.3L308.79-30.15 302.34-30.15 302.34-13.25Q302.34-9.3 300.39-6.13 298.44-2.95 294.94-1.15 291.44 0.65 286.94 0.65L286.94 0.65Q282.34 0.65 278.84-1.15 275.34-2.95 273.44-6.1 271.54-9.25 271.54-13.25L271.54-13.25 271.54-30.15 265.09-30.15 265.09-34.3 282.79-34.3 282.79-30.15 276.74-30.15 276.69-13.4Q276.69-10.6 277.99-8.38 279.29-6.15 281.62-4.9 283.94-3.65 286.94-3.65L286.94-3.65Q289.89-3.65 292.24-4.9 294.59-6.15 295.89-8.4 297.19-10.65 297.19-13.45L297.19-13.45 297.14-30.15 291.04-30.15 291.04-34.3 308.79-34.3ZM347.34-6.25L349.89-2.9Q346.74 0.7 342.59 0.7L342.59 0.7Q338.24 0.7 335.26-2.45 332.29-5.6 330.44-12.15L330.44-12.15 329.64-14.65 322.49-14.65 322.49-4.15 328.79-4.15 328.79 0 310.89 0 310.89-4.1 317.34-4.1 317.34-30.15 310.89-30.15 310.89-34.3 330.79-34.3Q336.64-34.3 340.04-31.65 343.44-29 343.44-24.45L343.44-24.45Q343.44-20.7 341.01-18.13 338.59-15.55 334.19-14.9L334.19-14.9 335.09-12.45Q336.64-8.05 338.54-6.05 340.44-4.05 342.84-4.05L342.84-4.05Q344.34-4.05 345.39-4.65 346.44-5.25 347.34-6.25L347.34-6.25ZM322.49-30.15L322.49-18.55 330.94-18.55Q334.14-18.55 336.24-20.13 338.34-21.7 338.34-24.45L338.34-24.45Q338.34-27.1 336.26-28.63 334.19-30.15 330.94-30.15L330.94-30.15 322.49-30.15ZM392.89-34.3L392.89-30.15 386.43-30.15 386.43-13.25Q386.43-9.3 384.49-6.13 382.54-2.95 379.04-1.15 375.54 0.65 371.04 0.65L371.04 0.65Q366.43 0.65 362.93-1.15 359.43-2.95 357.54-6.1 355.63-9.25 355.63-13.25L355.63-13.25 355.63-30.15 349.18-30.15 349.18-34.3 366.88-34.3 366.88-30.15 360.83-30.15 360.79-13.4Q360.79-10.6 362.08-8.38 363.38-6.15 365.71-4.9 368.04-3.65 371.04-3.65L371.04-3.65Q373.99-3.65 376.33-4.9 378.68-6.15 379.99-8.4 381.29-10.65 381.29-13.45L381.29-13.45 381.24-30.15 375.13-30.15 375.13-34.3 392.89-34.3ZM420.78-17.75Q428.43-15.95 428.43-9.35L428.43-9.35Q428.43-4.85 425.03-2.43 421.63 0 415.33 0L415.33 0 394.98 0 394.98-4.15 401.43-4.15 401.43-30.15 394.98-30.15 394.98-34.3 414.53-34.3Q419.98-34.3 422.96-31.85 425.93-29.4 425.93-25.4L425.93-25.4Q425.93-22.7 424.56-20.78 423.18-18.85 420.78-17.75L420.78-17.75ZM414.18-30.15L406.53-30.15 406.53-19.2 413.28-19.2Q416.78-19.2 418.76-20.58 420.73-21.95 420.73-24.8L420.73-24.8Q420.73-27.55 418.88-28.85 417.03-30.15 414.18-30.15L414.18-30.15ZM414.83-4.15Q423.23-4.15 423.23-9.75L423.23-9.75Q423.23-12.65 421.01-14 418.78-15.35 414.78-15.4L414.78-15.4 406.53-15.4 406.53-4.15 414.83-4.15ZM475.03-34.3L475.03-30.15 468.58-30.15 468.58-13.25Q468.58-9.3 466.63-6.13 464.68-2.95 461.18-1.15 457.68 0.65 453.18 0.65L453.18 0.65Q448.58 0.65 445.08-1.15 441.58-2.95 439.68-6.1 437.78-9.25 437.78-13.25L437.78-13.25 437.78-30.15 431.33-30.15 431.33-34.3 449.03-34.3 449.03-30.15 442.98-30.15 442.93-13.4Q442.93-10.6 444.23-8.38 445.53-6.15 447.86-4.9 450.18-3.65 453.18-3.65L453.18-3.65Q456.13-3.65 458.48-4.9 460.83-6.15 462.13-8.4 463.43-10.65 463.43-13.45L463.43-13.45 463.38-30.15 457.28-30.15 457.28-34.3 475.03-34.3ZM494.28-19.4Q500.88-17.55 504.23-15.05 507.58-12.55 507.58-8.4L507.58-8.4Q507.58-5.7 506.1-3.63 504.63-1.55 502.03-0.45 499.43 0.65 496.18 0.65L496.18 0.65Q492.63 0.65 489.43-0.85 486.23-2.35 483.53-5.05L483.53-5.05 483.53-0.05 478.98-0.05 478.98-11.6 481.88-11.75Q484.53-7.9 488.33-5.7 492.13-3.5 495.88-3.5L495.88-3.5Q498.68-3.5 500.45-4.7 502.23-5.9 502.23-7.95L502.23-7.95Q502.23-10.2 499.73-11.83 497.23-13.45 491.23-15L491.23-15Q484.98-16.65 482.08-19.33 479.18-22 479.18-25.9L479.18-25.9Q479.18-28.6 480.65-30.68 482.13-32.75 484.63-33.88 487.13-35 490.08-35L490.08-35Q497.03-35 501.33-29.9L501.33-29.9 501.33-34.3 505.88-34.3 505.88-22.9 503.08-22.75Q500.98-26.75 497.93-28.8 494.88-30.85 491.23-30.85L491.23-30.85Q488.28-30.85 486.4-29.58 484.53-28.3 484.53-26.15L484.53-26.15Q484.53-23.95 486.8-22.38 489.08-20.8 494.28-19.4L494.28-19.4ZM530.18-30.15L523.68-30.15 523.68-4.15 530.18-4.15 530.18 0 512.08 0 512.08-4.15 518.53-4.15 518.53-30.15 512.08-30.15 512.08-34.3 530.18-34.3 530.18-30.15Z" fill="#abddd9" data-fill-palette-color="secondary"></path></g></svg></g></svg></g><g transform="matrix(1,0,0,1,146.58468387993491,19.752361696980063)"><svg viewBox="0 0 87.29469627330745 9.875573612572106" height="9.875573612572106" width="87.29469627330745"><g transform="matrix(1,0,0,1,0,0)"><svg width="87.29469627330745" viewBox="1.5 -36.25 324.82000732421875 36.75" height="9.875573612572106" data-palette-color="#abddd9"><path d="M1.5-33L29.45-33 29.45-28.4 18.15-28.4 18.15 0 12.8 0 12.8-28.4 1.5-28.4 1.5-33ZM45.95-25.5L45.95-25.5Q49.6-25.5 52.4-23.95 55.2-22.4 56.77-19.48 58.35-16.55 58.35-12.5L58.35-12.5Q58.35-8.45 56.77-5.53 55.2-2.6 52.4-1.05 49.6 0.5 45.95 0.5L45.95 0.5Q42.3 0.5 39.5-1.05 36.7-2.6 35.1-5.53 33.5-8.45 33.5-12.5L33.5-12.5Q33.5-16.55 35.1-19.48 36.7-22.4 39.5-23.95 42.3-25.5 45.95-25.5ZM45.95-21.3L45.95-21.3Q43.7-21.3 42.12-20.28 40.55-19.25 39.7-17.3 38.85-15.35 38.85-12.5L38.85-12.5Q38.85-9.7 39.7-7.73 40.55-5.75 42.12-4.73 43.7-3.7 45.95-3.7L45.95-3.7Q48.2-3.7 49.75-4.73 51.3-5.75 52.15-7.73 53-9.7 53-12.5L53-12.5Q53-15.35 52.15-17.3 51.3-19.25 49.75-20.28 48.2-21.3 45.95-21.3ZM78.69-33L106.64-33 106.64-28.4 95.34-28.4 95.34 0 89.99 0 89.99-28.4 78.69-28.4 78.69-33ZM117.64 0L112.29 0 112.29-36.25 117.64-36.25 117.64-21Q118.89-23.35 121.02-24.43 123.14-25.5 125.74-25.5L125.74-25.5Q128.39-25.5 130.52-24.48 132.64-23.45 133.89-21.4 135.14-19.35 135.14-16.2L135.14-16.2 135.14 0 129.79 0 129.79-14.5Q129.79-18.2 128.27-19.65 126.74-21.1 124.44-21.1L124.44-21.1Q122.84-21.1 121.27-20.33 119.69-19.55 118.67-17.82 117.64-16.1 117.64-13.2L117.64-13.2 117.64 0ZM154.24 0.5L154.24 0.5Q150.49 0.5 147.64-1.05 144.79-2.6 143.21-5.53 141.64-8.45 141.64-12.5L141.64-12.5Q141.64-16.55 143.21-19.48 144.79-22.4 147.59-23.95 150.39-25.5 153.94-25.5L153.94-25.5Q157.59-25.5 160.14-24 162.69-22.5 164.04-19.9 165.39-17.3 165.39-14L165.39-14Q165.39-13.1 165.34-12.3 165.29-11.5 165.19-10.9L165.19-10.9 145.09-10.9 145.09-15 162.84-15 160.19-14.2Q160.19-17.6 158.49-19.43 156.79-21.25 153.84-21.25L153.84-21.25Q151.69-21.25 150.09-20.25 148.49-19.25 147.64-17.28 146.79-15.3 146.79-12.45L146.79-12.45Q146.79-9.65 147.69-7.7 148.59-5.75 150.24-4.75 151.89-3.75 154.14-3.75L154.14-3.75Q156.64-3.75 158.19-4.7 159.74-5.65 160.64-7.35L160.64-7.35 164.89-5.35Q163.99-3.55 162.46-2.23 160.94-0.9 158.84-0.2 156.74 0.5 154.24 0.5ZM201.68 0L195.33 0 185.63-33 191.28-33 198.68-4.65 205.88-33 211.38-33 218.63-4.6 225.98-33 231.43-33 221.78 0 215.48 0 210.23-19.8 208.58-27.4 208.53-27.4 206.88-19.8 201.68 0ZM247.83-25.5L247.83-25.5Q251.48-25.5 254.28-23.95 257.08-22.4 258.66-19.48 260.23-16.55 260.23-12.5L260.23-12.5Q260.23-8.45 258.66-5.53 257.08-2.6 254.28-1.05 251.48 0.5 247.83 0.5L247.83 0.5Q244.18 0.5 241.38-1.05 238.58-2.6 236.98-5.53 235.38-8.45 235.38-12.5L235.38-12.5Q235.38-16.55 236.98-19.48 238.58-22.4 241.38-23.95 244.18-25.5 247.83-25.5ZM247.83-21.3L247.83-21.3Q245.58-21.3 244.01-20.28 242.43-19.25 241.58-17.3 240.73-15.35 240.73-12.5L240.73-12.5Q240.73-9.7 241.58-7.73 242.43-5.75 244.01-4.73 245.58-3.7 247.83-3.7L247.83-3.7Q250.08-3.7 251.63-4.73 253.18-5.75 254.03-7.73 254.88-9.7 254.88-12.5L254.88-12.5Q254.88-15.35 254.03-17.3 253.18-19.25 251.63-20.28 250.08-21.3 247.83-21.3ZM272.33 0L266.98 0 266.98-25 271.53-25 272.03-20.5Q273.03-22.95 275-24.23 276.98-25.5 279.88-25.5L279.88-25.5Q280.63-25.5 281.38-25.38 282.13-25.25 282.63-25L282.63-25 281.88-20.3Q281.33-20.5 280.65-20.63 279.98-20.75 278.83-20.75L278.83-20.75Q277.28-20.75 275.78-19.93 274.28-19.1 273.3-17.45 272.33-15.8 272.33-13.25L272.33-13.25 272.33 0ZM287.53-36.25L292.88-36.25 292.88-7Q292.88-5.15 293.53-4.45 294.18-3.75 295.68-3.75L295.68-3.75Q296.58-3.75 297.2-3.88 297.83-4 298.78-4.35L298.78-4.35 298.18-0.35Q297.33 0.05 296.23 0.28 295.13 0.5 294.03 0.5L294.03 0.5Q290.68 0.5 289.1-1.23 287.53-2.95 287.53-6.55L287.53-6.55 287.53-36.25ZM312.87 0.5L312.87 0.5Q309.77 0.5 307.25-1.05 304.72-2.6 303.27-5.5 301.82-8.4 301.82-12.45L301.82-12.45Q301.82-16.65 303.37-19.55 304.92-22.45 307.52-23.98 310.12-25.5 313.22-25.5L313.22-25.5Q316.42-25.5 318.62-23.75 320.82-22 321.57-19.2L321.57-19.2 320.97-18.65 320.97-36.25 326.32-36.25 326.32 0 321.57 0 321.17-6.8 321.87-6.75Q321.52-4.5 320.22-2.88 318.92-1.25 317-0.38 315.07 0.5 312.87 0.5ZM314.02-3.8L314.02-3.8Q316.17-3.8 317.72-4.9 319.27-6 320.12-8 320.97-10 320.97-12.8L320.97-12.8Q320.97-15.4 320.12-17.28 319.27-19.15 317.75-20.15 316.22-21.15 314.22-21.15L314.22-21.15Q310.87-21.15 309.02-18.85 307.17-16.55 307.17-12.5L307.17-12.5Q307.17-8.45 308.97-6.13 310.77-3.8 314.02-3.8Z" opacity="1" transform="matrix(1,0,0,1,0,0)" fill="#abddd9" class="undefined-text-1" data-fill-palette-color="secondary" id="text-1"></path></svg></g></svg></g></svg></g></svg></g><g transform="matrix(1,0,0,1,248.20382912000252,0)"><svg viewBox="0 0 40.81068468628825 40.9458065978011" height="40.9458065978011" width="40.81068468628825"><g><svg xmlns="http://www.w3.org/2000/svg" xmlns:xlink="http://www.w3.org/1999/xlink" version="1.1" x="0" y="0" viewBox="0.16499999165534973 0 99.66999816894531 100" enable-background="new 0 0 100 100" xml:space="preserve" height="40.9458065978011" width="40.81068468628825" class="icon-icon-0" data-fill-palette-color="accent" id="icon-0"><g fill="#c0a8a9" data-fill-palette-color="accent"><g fill="#c0a8a9" data-fill-palette-color="accent"><path d="M31.943 4.695l-6.242 8.612-10.767 3.23-2.368 3.23-1.84-0.42C4.133 27.814 0.165 38.435 0.165 50c0 4.251 0.588 8.355 1.592 12.294l10.158 8.296-3.033 7.602C17.886 91.354 33.011 100 50.165 100c25.729 0 46.897-19.449 49.67-44.439l-4.147-8.014-6.68 5.602-1.281 6.891L81.689 47.98l-7.75-1.939-1.502 4.521-8.613 5.388 5.379 1.505-8.18 12.492-0.435 9.042-6.675 10.985-7.112 1.721c0 0-4.736-13.135-4.517-13.782 0.214-0.647-0.862-14.858-1.506-15.289-0.647-0.433-12.706-1.505-12.706-1.505l-4.955-13.354 8.395-10.338-2.368-5.169 4.097-3.23 7.751-6.674-1.515-3.445 8.404-7.756 7.327 1.725 22.135-4.804C69.52 2.985 60.193 0 50.165 0 42.628 0 35.52 1.711 29.116 4.695H31.943zM50.041 5.555l-4.744 3.232-1.935-3.232H50.041zM24.839 16.537l3.449-1.935 0.858 2.368L24.839 16.537zM34.246 19.05l2.518 5.521-3.247 1.828-2.866-1.175 1.133-2.561 0.442-3.037L34.246 19.05z" fill="#c0a8a9" data-fill-palette-color="accent"></path><polygon points="33.243,36.994 40.132,36.423 41.312,38.727 48.428,39.658 56.434,40.992 58.079,36.543 49.582,36.054     45.85,31.829 46.729,34.84 44.297,36.852 44.297,35.415 39.167,31.782   " fill="#c0a8a9" data-fill-palette-color="accent"></polygon><polygon points="49.393,15.335 45.811,17.484 45.099,20.346 42.375,23.207 50.242,21.345   " fill="#c0a8a9" data-fill-palette-color="accent"></polygon><polygon points="61.215,31.658 54.575,28.458 52.945,32.79 60.078,33.369   " fill="#c0a8a9" data-fill-palette-color="accent"></polygon></g></g></svg></g></svg></g></svg></g></svg></g><g><path d="M245.816 0c68.262 0 123.6 55.338 123.6 123.6 0 68.262-55.338 123.6-123.6 123.6-61.833 0-113.061-45.404-122.163-104.69l0.617 0c9.097 58.948 60.051 104.081 121.546 104.081 67.926 0 122.991-55.065 122.99-122.991 0-67.926-55.065-122.991-122.99-122.991-61.495 0-112.449 45.132-121.546 104.081l-0.617 0c9.102-59.286 60.33-104.69 122.163-104.69z" fill="#124948" stroke="transparent" data-fill-palette-color="tertiary"></path></g></svg></g><defs></defs></svg><rect width="395.52" height="247.2" fill="none" stroke="none" visibility="hidden"></rect></g></svg></g></svg>